# xmcd
#
# Track frame offsets: 
#        150
#        16576
#        30871
#        47204
#        65378
#        83997
#        101150
#        117241
#        133469
#        148601
#        190329
#        213067
#        239615
#        257574
#        275612
#        288570
#        303573
#        313280
#        331068
#        351466
#
# Disc length: 4794 seconds
#
# Revision: 0
# Processed by: cddbd v1.5.2PL0 Copyright (c) Steve Scherf et al.
# Submitted via: ExactAudioCopy v0.99pb4
#
DISCID=3412b814
DTITLE=Various Artist - prevue promo 1152A-1
DYEAR=2004
DGENRE=pop
TTITLE0=Lindsay Lohan - Over
TTITLE1=Diana DeGarmo - Emotional(Top 40 Radio Mix)
TTITLE2=Peter Gabriel - Book Of Love, The(Movie "SHALL WE DANCE")
TTITLE3=Joss Stone - Right To Be Wrong
TTITLE4=Gwen Stefani feat.  Eve - Rich Girl(Radio Edit #1)
TTITLE5=Gwen Stefani f eat.   Eve - Rich Girl(Radio Edit #2)
TTITLE6=Green Day - Boulevard Of Broken Dreams(Reservice to Top 40 - C
TTITLE6=lean)
TTITLE7=U2 - All Because Of You
TTITLE8=Powderfinger - Baby I've Got You On My Mind (Baby I've Got You
TTITLE8=) On My Mind
TTITLE9=Cradle Of Filth - Nymphetamine (Overdose- Content - Album Vers
TTITLE9=ion)
TTITLE10=Cradle Of Filth - Nymphetamine (Fix)(Content - Album Version)
TTITLE11=Anthrax - Among The Living
TTITLE12=3 Doors Down - Let Me Go(Alternate Version)
TTITLE13=3 Doors Down - Let Me Go(Rock Version)
TTITLE14=Kasabian - Club Foot
TTITLE15=White Stripes - Jolene(Live - Applause Tag)
TTITLE16=Nirvana - White Lace And Strange (Bond)(Album Version - Previ
TTITLE16=ously Unreleased Radio Performance - 1987 - Applause Tag)
TTITLE17=Nirvana - Blandest(Album Version - Previously Unreleased Demo
TTITLE17=1988)
TTITLE18=Nirvana - In Bloom(Album Version - Sub Pop Version - 1989)
TTITLE19=Nirvana - Lithium(Album Version - Previously Unreleased Solo 
TTITLE19=Acoustic Radio Performance - 1990)
EXTD=
EXTT0=
EXTT1=
EXTT2=
EXTT3=
EXTT4=
EXTT5=
EXTT6=
EXTT7=
EXTT8=
EXTT9=
EXTT10=
EXTT11=
EXTT12=
EXTT13=
EXTT14=
EXTT15=
EXTT16=
EXTT17=
EXTT18=
EXTT19=
PLAYORDER=
